# xmcd CD database file
#
# Track frame offsets:
#	150
#	10589
#	30755
#	44596
#	66283
#	86172
#	103879
#	133367
#	153099
#	171064
#	188306
#	207568
#	233596
#	252851
#	285019
#	299203
#
# Disc length: 4285 seconds
#
# Revision: 0
# Processed by: cddbd v1.5.1PL2 Copyright (c) Steve Scherf et al.
# Submitted via: CDex 1.51
#
DISCID=d810bb10
DTITLE=Trans-Siberian Orchestra - The Christmas Attic
DYEAR=1998
DGENRE=New Age
TTITLE0=The Ghosts Of Christmas Eve 
TTITLE1=Boughs Of Holly 
TTITLE2=The World That She Sees 
TTITLE3=The World That He Sees
TTITLE4=Midnight Christmas Eve 
TTITLE5=The March Of The Kings
TTITLE6=The Three Kings And I
TTITLE7=Christmas Canon 
TTITLE8=Joy/Angels We Have Heard On High 
TTITLE9=Find Our Way Home 
TTITLE10=Appalachian Snowfall 
TTITLE11=The Music Box 
TTITLE12=The Snow Came Down 
TTITLE13=Christmas In The Air 
TTITLE14=Dream Child (A Christmas Dream)
TTITLE15=An Angel's Share 
EXTD=YEAR: 1998
EXTT0=
EXTT1=
EXTT2=
EXTT3=
EXTT4=
EXTT5=
EXTT6=
EXTT7=
EXTT8=
EXTT9=
EXTT10=
EXTT11=
EXTT12=
EXTT13=
EXTT14=
EXTT15=
PLAYORDER=
